<svg xmlns="http://www.w3.org/2000/svg" viewBox="0 0 78.82 100"><defs><linearGradient id="ac0eb33ae-3eac-4667-81c6-086f56239a69" x1="774.37" y1="140.57" x2="774.37" y2="25.45" gradientTransform="matrix(-.88 .47 .47 .88 687.68 -372.05)" gradientUnits="userSpaceOnUse"><stop offset="0" stop-color="#00e155"/><stop offset="1" stop-color="#007262"/></linearGradient><linearGradient id="b362e1d9c-ebf6-4afd-aff8-7acbc643cdec" x1="720.61" y1="39.7" x2="734.27" y2="108.21" gradientTransform="matrix(-.9 .44 .44 .9 657.16 -347.09)" gradientUnits="userSpaceOnUse"><stop offset="0" stop-color="#ff566f"/><stop offset="1" stop-color="#fc0"/></linearGradient></defs><g><g><path d="M75.45 51.3L53.88 28.18a11.19 11.19 0 0 0-18.52 3.41L18 84.55A11.18 11.18 0 0 0 32.4 99.2l42.67-31.39s8.19-7.64.38-16.51z" opacity=".8" fill="url(#ac0eb33ae-3eac-4667-81c6-086f56239a69)"/><path d="M5.05 47.57L31.81 71.8a11.19 11.19 0 0 0 16.92-6.41L64 14.17A11.18 11.18 0 0 0 47.05 1.88l-42 27a11.19 11.19 0 0 0 0 18.69z" opacity=".8" fill="url(#b362e1d9c-ebf6-4afd-aff8-7acbc643cdec)"/><path d="M24.37 65.07l11-33.48a11.19 11.19 0 0 1 18.52-3.41L58.38 33l-9.65 32.4a11.19 11.19 0 0 1-16.92 6.4z" fill="#ffca00" opacity=".8"/></g></g></svg>